<svg id="Layer_1" data-name="Layer 1" xmlns="http://www.w3.org/2000/svg" viewBox="0 0 266.8886 81.66">
  <defs>
    <style>
      .cls-1 {
        fill: #fff;
      }
    </style>
  </defs>
  <title>logo</title>
  <g>
    <path class="cls-1" d="M86.4354,24.86a16.9225,16.9225,0,0,0-3.16,1.08,22.1226,22.1226,0,0,0-3.45,1.94q-1.71,1.155-4.79,3.72l-.57-.16.17-.59-2.67,2.27,3.9,1.01a16.5218,16.5218,0,0,1,1.85-1.71,14.5819,14.5819,0,0,1,3.77-2.3,10.9639,10.9639,0,0,1,4.09-.72,9.4928,9.4928,0,0,1,1.22.08Z"/>
    <path class="cls-1" d="M99.4055,44.28a32.86,32.86,0,0,1-4.44,11.31,19.9538,19.9538,0,0,1-7.39,6.89,20.7672,20.7672,0,0,1-9.77,2.3,25.2432,25.2432,0,0,1-5.35-.51,20.2,20.2,0,0,1-4.19-1.36l-1.83,8.6a30.7111,30.7111,0,0,0-.66,3.95,4.64,4.64,0,0,0,.22,2.06,2.5717,2.5717,0,0,0,1.08,1.24,8.54,8.54,0,0,0,2.64.9l-.43,2h-16.62l.42-2a17.873,17.873,0,0,0,2.56-.84,4.1963,4.1963,0,0,0,1.68-1.26,7.3219,7.3219,0,0,0,1.13-2.26c.31-.95.63-2.22.97-3.79l3.82-18,1.41-6.6,2.2-10.37c.42-1.96.69-3.35.81-4.18a9.116,9.116,0,0,0,.11-2.06,2.7959,2.7959,0,0,0-.43-1.34,2.6847,2.6847,0,0,0-1.07-.9,10.4243,10.4243,0,0,0-2.47-.73l.46-2.16,9.65-.37h2.49l-1.77,6.05-2.67,2.27,3.9,1.01a10.0019,10.0019,0,0,0-1.1,1.37,8.9807,8.9807,0,0,0-1,2.01,7.0822,7.0822,0,0,0-.36,1.19l-1.9,8.97-.38,1.79a28.9289,28.9289,0,0,0-.8,6.03,5.94,5.94,0,0,0,1,3.44,5.7374,5.7374,0,0,0,2.52,1.98,11.339,11.339,0,0,0,4.32.65,10.321,10.321,0,0,0,8.29-4.09q3.36-4.095,5.06-12.09,3.15-14.88-4.72-15.9l-.36-4.62c.03-.01.06-.01.09-.02a14.7359,14.7359,0,0,1,3.14-.33q6.7352,0,9.27,5.04Q101.47,34.575,99.4055,44.28Z"/>
    <path class="cls-1" d="M137.0742,34.0912h-3.9128a9.7252,9.7252,0,0,0-1.3007-3.8517,5.0152,5.0152,0,0,0-2.3515-1.9768,10.0013,10.0013,0,0,0-3.6692-.5706,9.6293,9.6293,0,0,0-5.5216,1.5285,6.504,6.504,0,0,0-2.8241,4.1777,5.1972,5.1972,0,0,0,.116,3.0977,5.722,5.722,0,0,0,1.92,2.2825,32.2262,32.2262,0,0,0,5.1492,2.8123,32.0391,32.0391,0,0,1,5.7177,3.3015,8.8818,8.8818,0,0,1,2.801,3.5053,7.8041,7.8041,0,0,1,.27,4.7687,14.3856,14.3856,0,0,1-2.2528,5.4209,12.8761,12.8761,0,0,1-3.86,3.5868,16.5553,16.5553,0,0,1-5.1729,1.9972,29.5487,29.5487,0,0,1-6.1419.6114,40.4264,40.4264,0,0,1-6.5354-.51,54.2522,54.2522,0,0,1-5.9953-1.3247l1.8107-8.5186h3.9944q.3035,3.75,2.1041,5.4413t5.5912,1.6915a14.4094,14.4094,0,0,0,2.9385-.3057,9.2754,9.2754,0,0,0,2.7232-1.0189,7.0249,7.0249,0,0,0,2.1642-1.9361,7.7344,7.7344,0,0,0,1.3019-3.0569,4.9184,4.9184,0,0,0-2.1163-5.7673,36.5219,36.5219,0,0,0-5.4129-2.9143,28.6479,28.6479,0,0,1-5.31-3.0161,8.6218,8.6218,0,0,1-2.7892-3.4645,7.7269,7.7269,0,0,1-.2789-4.728,11.8706,11.8706,0,0,1,3.0483-5.8082,15.0363,15.0363,0,0,1,6.0389-3.77,24.8765,24.8765,0,0,1,8.3067-1.3043,47.8544,47.8544,0,0,1,5.14.2649q2.45.2649,6.0763,1.0394Z"/>
    <path class="cls-1" d="M139.6731,62.1333a16.551,16.551,0,0,0,2.444-.856,4.6229,4.6229,0,0,0,1.3578-1.019,6.668,6.668,0,0,0,1.1582-1.9971A26.5847,26.5847,0,0,0,145.79,54.063l3.7773-17.7708q.5544-2.6085.8108-4.1981a5.8931,5.8931,0,0,0-.0291-2.5475,2.29,2.29,0,0,0-1.1845-1.4265,9.902,9.902,0,0,0-2.6638-.7948l.4592-2.16,9.5747-.3669h2.4863l-6.1944,29.1425a24.8084,24.8084,0,0,0-.7092,4.8707,2.81,2.81,0,0,0,.8013,2.0787,6.6736,6.6736,0,0,0,2.7315,1.2432L155.226,64.13H139.2486ZM169.11,8.3317l-.41.8836a13.5971,13.5971,0,0,1-12.3366,7.88h0l2.3336-8.7631Z"/>
    <path class="cls-1" d="M171.6833,53.9407a24.8084,24.8084,0,0,0-.7092,4.8707,2.81,2.81,0,0,0,.8013,2.0787,6.6735,6.6735,0,0,0,2.7316,1.2432l-.4246,1.9971H157.9012l.4245-1.9971a11.3582,11.3582,0,0,0,3.0667-1.1,4.5094,4.5094,0,0,0,1.4315-1.3655,9.0663,9.0663,0,0,0,.9482-2.16q.4329-1.3653.9007-3.5664l7.2514-34.115q.8317-3.9129,1.1-5.4617a13.263,13.263,0,0,0,.2327-2.6289,3.7761,3.7761,0,0,0-.3741-1.6915,2.4238,2.4238,0,0,0-1.0556-.9782,11.31,11.31,0,0,0-2.7175-.7337l.4505-2.1194,9.91-.4076h2.4455Z"/>
    <path class="cls-1" d="M198.8882,64.7826q-8.4779,0-11.88-4.993t-1.3226-14.775a29.9706,29.9706,0,0,1,4.7608-11.3717,21.44,21.44,0,0,1,7.8879-6.9086,21.6817,21.6817,0,0,1,9.7739-2.2621q8.7223,0,12.1272,5.0744t1.3862,14.5713A31.1214,31.1214,0,0,1,216.9545,55.53,20.8846,20.8846,0,0,1,209.119,62.48,22.5562,22.5562,0,0,1,198.8882,64.7826Zm-5.3169-20.624q-1.7846,8.3964-.0723,12.9a6.54,6.54,0,0,0,6.685,4.5038,9.3583,9.3583,0,0,0,4.928-1.3246,13.6416,13.6416,0,0,0,3.8761-3.5664,22.0143,22.0143,0,0,0,2.8369-5.1968A39.2718,39.2718,0,0,0,213.6674,45.3a31.11,31.11,0,0,0,.7892-9.9451,9.55,9.55,0,0,0-2.3726-5.8082,6.5956,6.5956,0,0,0-4.8229-1.8545,10.6681,10.6681,0,0,0-8.47,4.28Q195.2521,36.2515,193.5713,44.1586Z"/>
    <path class="cls-1" d="M265.3005,64.13H249.2416l.4245-1.9971a17.6432,17.6432,0,0,0,2.4644-.856,4.5361,4.5361,0,0,0,1.3782-1.019,6.6962,6.6962,0,0,0,1.1625-2.0175,26.2979,26.2979,0,0,0,1.1443-4.137l2.27-10.6788q.6064-2.8531.9373-5.1764a20.9853,20.9853,0,0,0,.26-3.8109,6.6344,6.6344,0,0,0-.4437-2.3233,4.3837,4.3837,0,0,0-1.001-1.4265,4.6191,4.6191,0,0,0-1.533-.9375,7.1925,7.1925,0,0,0-2.4942-.3464,8.3362,8.3362,0,0,0-3.15.6317,16.4315,16.4315,0,0,0-3.6019,2.1806,15.1785,15.1785,0,0,0-3.1361,3.0569,9.0092,9.0092,0,0,0-1.5108,3.4645L239.18,53.9407a24.8084,24.8084,0,0,0-.7092,4.8707,2.81,2.81,0,0,0,.8013,2.0787,6.6736,6.6736,0,0,0,2.7315,1.2432l-.4245,1.9971H225.6015l.4245-1.9971a16.551,16.551,0,0,0,2.444-.856,4.6233,4.6233,0,0,0,1.3579-1.019,6.67,6.67,0,0,0,1.1582-1.9971,26.5868,26.5868,0,0,0,1.1572-4.1982l3.7773-17.7708q.5545-2.6085.8109-4.1981a5.8928,5.8928,0,0,0-.0292-2.5475,2.29,2.29,0,0,0-1.1845-1.4265,9.902,9.902,0,0,0-2.6638-.7948l.4592-2.16,9.6155-.3669h2.4863l-1.8605,6.6437.536.1631a53.7121,53.7121,0,0,1,5.7976-4.3612,21.7707,21.7707,0,0,1,4.1787-2.0176,12.579,12.579,0,0,1,4.1663-.7133,12.83,12.83,0,0,1,3.825.51,6.7744,6.7744,0,0,1,2.7233,1.5692,6.38,6.38,0,0,1,1.6218,2.629,11.342,11.342,0,0,1,.4825,3.77,30.57,30.57,0,0,1-.7589,5.5839l-3.2662,15.366a37.166,37.166,0,0,0-.7033,4.0759,4.6658,4.6658,0,0,0,.1548,1.9564,2.4547,2.4547,0,0,0,.9351,1.1617,9.4392,9.4392,0,0,0,2.4778.9986Z"/>
  </g>
  <path class="cls-1" d="M87.0355,32.66l-.24-3.18-.36-4.62-.13-1.69-.17-2.13-.38.33-8.63,7.36-2.49,2.12-2.67,2.27,3.9,1.01.31.08c-.79,1.15-1.59,2.25-2.41,3.3a7.0822,7.0822,0,0,0-.36,1.19l-1.9,8.97a64.5231,64.5231,0,0,0,10.59-11.92l5.28,1.38Zm-35.74,21.67a.8864.8864,0,0,1-.15-.02,25.1024,25.1024,0,0,0,5.93-11.35c1.1-5.15-2.18-9.32-7.33-9.32a13.1263,13.1263,0,0,0-12.23,10.09,11.1538,11.1538,0,0,0,.77,7.18,12.5906,12.5906,0,0,0,4.87,5.27l.01.01c.02.02.05.03.07.05-.31.21-.63.41-.95.6a.01.01,0,0,1-.01.01c-3.98,2.77-10.45,4.64-17.44,4.75-.11.01-.22.01-.33.01-.13.01-.25.01-.38.01q-5.985,0-8.91-3.98a9.4207,9.4207,0,0,1-1.44-2.95,15.8141,15.8141,0,0,1-.19-6.96c.07-.39.14-.79.23-1.2.04-.19.08-.39.13-.58a17.0249,17.0249,0,0,1,4.53-8.29c.17-.17.34-.34.52-.5l.54-.48a15.2227,15.2227,0,0,1,1.7-1.26.01.01,0,0,1,.01-.01,14.9029,14.9029,0,0,1,5.65-2.23,16.9111,16.9111,0,0,1,2.78-.23,42.3507,42.3507,0,0,1,5.67.48,19.8945,19.8945,0,0,0,2.2.2,8.7815,8.7815,0,0,0,4.47-.88,2.29,2.29,0,0,0,1.21-1.57,1.6935,1.6935,0,0,0-.68-1.76q-.8849-.75-3.81-.75a32.952,32.952,0,0,0-3.71.27c-.51.05-1.05.12-1.62.2-.72.09-1.41.16-2.06.21-.66.05-1.28.07-1.87.07q-5.2352,0-7.54-3.2-2.31-3.18-1.04-9.17a18.2082,18.2082,0,0,1,2.06-5.47,17.4656,17.4656,0,0,1,1.17-1.73,15.693,15.693,0,0,1,1.39-1.55c.33-.32.68-.63,1.04-.93a16.0209,16.0209,0,0,1,10.47-3.56,12.3309,12.3309,0,0,1,3.47.44,8.2547,8.2547,0,0,1,1.44.55,7.0591,7.0591,0,0,1,1.23.77c.94.73,1.88,2.71,2.85,5.95a10.8476,10.8476,0,0,0,.4,1.14,7.5584,7.5584,0,0,0,.73,1.42,5.03,5.03,0,0,0,.89,1.08,4.2476,4.2476,0,0,0,1.05.74,2.59,2.59,0,0,0,.38.17,4.6277,4.6277,0,0,0,1.73.31,6.3586,6.3586,0,0,0,2.82-.68,9.05,9.05,0,0,0,1.63-1.06,6.8135,6.8135,0,0,0,2.58-3.84,6.052,6.052,0,0,0-.03-2.54V8.25a8.124,8.124,0,0,0-.27-.93,10.1254,10.1254,0,0,0-.66-1.44q-1.455-2.61-6.67-4.25A41.3294,41.3294,0,0,0,38.3754,0Q26.63,0,18.1954,5.78a20.6658,20.6658,0,0,0-2.8,2.24,15.8161,15.8161,0,0,0-4.74,8.29,10.978,10.978,0,0,0,1,8.08,8.2436,8.2436,0,0,0,1.34,1.67,10.4993,10.4993,0,0,0,.91.82,25.3746,25.3746,0,0,0,5.37,3.14c.56.25,1.14.5,1.75.75-1.73.6-3.35,1.22-4.84,1.86a34.3328,34.3328,0,0,0-10.2,6.16,25.5528,25.5528,0,0,0-2.1,2.24c-.31.37-.6.76-.88,1.14a17.293,17.293,0,0,0-1.42,2.33,14.6694,14.6694,0,0,0-1.29,3.6q-1.455,6.855,4.24,12.5a14.0641,14.0641,0,0,0,1.54,1.32,16.8571,16.8571,0,0,0,2.71,1.65q5.4448,2.67,14.22,2.67c.48,0,.96-.01,1.43-.03h.1c.34-.01.68-.02,1.01-.04.27-.01.54-.03.8-.05a40.8186,40.8186,0,0,0,5.04-.63,5.9756,5.9756,0,0,0,.61-.12c.11-.01.22-.04.33-.06.01,0,.02-.01.03-.01.04-.01.09-.02.13-.03a36.8391,36.8391,0,0,0,14.8-7.25,1.9285,1.9285,0,0,0,.24-.01,32.7767,32.7767,0,0,0,15.72-4.5l1.41-6.6a43.5074,43.5074,0,0,1-13.35,7.42Zm-4.21-1.19c-.38-.16-.74-.34-1.09-.53a9.0086,9.0086,0,0,1-4.75-5.6V47a7.348,7.348,0,0,1-.03-3.27c.83-3.92,4.36-7.09,7.89-7.09a4.2728,4.2728,0,0,1,4.31,5.43,20.2783,20.2783,0,0,1-2.39,6.07A24.1848,24.1848,0,0,1,47.0855,53.14Z"/>
</svg>
