<svg id="Layer_1" data-name="Layer 1" xmlns="http://www.w3.org/2000/svg" xmlns:xlink="http://www.w3.org/1999/xlink" viewBox="0 0 738.5815 602.9575">
  <defs>
    <style>
      .cls-1 {
        fill: none;
        stroke: #fff;
        stroke-miterlimit: 10;
        stroke-width: 2.6732px;
      }

      .cls-2 {
        fill: url(#linear-gradient);
      }
    </style>
    <linearGradient id="linear-gradient" x1="177.3477" y1="378.2113" x2="857.5228" y2="726.4731" gradientTransform="translate(-71.2555 80.4734) rotate(-8.6739)" gradientUnits="userSpaceOnUse">
      <stop offset="0.1333" stop-color="#2f67b2"/>
      <stop offset="1" stop-color="#282973"/>
    </linearGradient>
  </defs>
  <title>final</title>
  <path class="cls-1" d="M476.234,749.4255" transform="translate(-130.7093 -198.5213)"/>
  <path class="cls-1" d="M559.75,773.0689" transform="translate(-130.7093 -198.5213)"/>
  <path class="cls-2" d="M860.4532,421.8946l-18.8688-81.151L837.3686,322.61l-2.8924,3.3274L769.547,400.9634l-38.7478,44.7248,37.7843,3.9225c-47.0608,97.6449-111.3656,166.9026-188.4856,206.7662l-.0324.0049c-.45.0023-.8676,0-1.3175.002,21.1278-32.9139,34.1579-69.1373,36.2976-105.9551,2.6708-45.9552-31.1843-77.68-75.7287-70.8844-48.1752,7.3495-89.516,53.5644-92.4085,103.3353-1.348,23.1952,4.5485,43.9252,16.1156,61.07,11.358,16.8779,28.2511,30.2906,49.041,39.1279.03.0286.063.0236.0933.0522a7.3226,7.3226,0,0,0,.751.35c-2.4432,2.2305-4.9453,4.37-7.478,6.482a.0416.0416,0,0,1-.0343.0383c-31.2849,29.6531-85.887,54.7028-147.3874,64.6489-1.1041.2017-2.174.3649-3.2762.533q-51.6929,7.8861-82.2287-22.62-30.5187-30.5253-26.82-94.17,3.1716-54.5739,36.5245-92.72,33.3519-38.1292,82.6944-45.6568,19.403-2.96,49.6788-3.3656a164.53,164.53,0,0,0,19.25-1.1453q26.4543-4.0357,37.48-13.5136c5.2461-4.0183,8.11-9.0663,8.4621-15.1245s-2.39-10.8482-8.2262-14.37q-8.7056-5.29-33.943-1.4566-16.4367,2.5074-45.4723,11.15a274.4508,274.4508,0,0,1-33.6313,7.5523q-45.2251,6.8993-69.4061-17.676-24.1677-24.5274-21.0822-77.8942,3.1716-54.574,36.1775-91.1741,32.97-36.5285,85.8162-44.64,33.4569-5.1041,55.4613,7.1639,13.5366,7.5885,32.4487,47.6306,18.8757,40.1136,51.1981,35.1828,19.9865-3.0492,36.1386-20.84,16.1683-17.7927,17.2613-36.6034,1.1962-20.5843-14.7578-41.306-16.004-20.6971-63.2854-27.8984-47.2969-7.2151-107.7915,2.0136-101.5865,15.4975-166.876,76.5459-47.9424,44.5349-51.2383,100.969-2.4306,41.8218,19.28,68.5486,21.7257,26.7416,89.5043,42.841-85.3179,44.9124-119.572,89.1674-34.3373,44.3005-36.8585,87.9608-3.5566,61.2012,53.136,102.4625Q240.751,813.4072,351.1372,796.6q6.2247-.95,12.3635-2.0852l.81-.1236a387.4184,387.4184,0,0,0,66.1526-18.12,1.09,1.09,0,0,0,.2958-.1115,322.7231,322.7231,0,0,0,119.5131-82.6232c108.4754-16.5486,208.568-110.0091,271.5242-238.4426l47.4938,4.9293ZM569.5026,603.1566A209.3068,209.3068,0,0,1,542.04,651.6335c-3.4807-.9286-6.8579-1.9727-10.1305-3.1653-23.32-8.4181-40.5858-23.1673-48.4423-42.238a64.0286,64.0286,0,0,1-4.5609-28.232c2.0327-34.977,28.38-67.0283,58.8544-71.6773,26.0976-3.9813,45.9766,14.45,44.42,41.226A177.0345,177.0345,0,0,1,569.5026,603.1566Z" transform="translate(-130.7093 -198.5213)"/>
</svg>
